<?xml version="1.0" encoding="utf-8"?>
<!-- Generator: Adobe Illustrator 24.1.3, SVG Export Plug-In . SVG Version: 6.00 Build 0)  -->
<svg version="1.1" id="Layer_1" xmlns="http://www.w3.org/2000/svg" xmlns:xlink="http://www.w3.org/1999/xlink" x="0px" y="0px"
	 viewBox="0 0 1000 1000" style="enable-background:new 0 0 1000 1000;" xml:space="preserve">
<g id="layer1" transform="translate(-50.726322,-52.827117)">
	<path id="path826" d="M554.82,63.31L313.15,481.88h190.74v45.43c-137.74,22.94-234.29,133.8-224.58,257.88
		c6.79,84.82,62.64,160.46,147.55,199.85v-91.21c-38.96-28.35-62.91-78.46-66.62-121.57c-6.44-77.82,53.73-148.59,143.65-168.96
		v329.82c0,0-1.37,39.64-4.83,59.11c-3.06,17.23-21.85,50.6-21.85,50.6h155.21c0,0-18.79-33.36-21.85-50.59
		c-3.46-19.47-4.83-59.12-4.83-59.12V603.33c75.3,17.04,147.99,71.5,147.99,140.5s-28.42,119.04-70.95,150v91.07
		C773.76,942.68,830.85,859.15,831,768.03c0.73-122.2-105.66-223.61-225.26-240.6v-45.54h190.74L554.82,63.31z M554.82,197.98
		l125.49,217.36H429.32L554.82,197.98z"/>
</g>
</svg>
