<?xml version="1.0" encoding="utf-8"?>
<!-- Generator: Adobe Illustrator 24.1.0, SVG Export Plug-In . SVG Version: 6.00 Build 0)  -->
<svg version="1.1" id="Layer_1" xmlns="http://www.w3.org/2000/svg" xmlns:xlink="http://www.w3.org/1999/xlink" x="0px" y="0px"
	 viewBox="0 0 1000 1000" style="enable-background:new 0 0 1000 1000;" xml:space="preserve">
<g>
	<path d="M962.05,426.59c-14.28,25.3-41.07,40.96-70.12,40.98c-44.5,0-80.57-36.07-80.57-80.57s36.07-80.57,80.57-80.57
		c15.7,0.02,31.04,4.63,44.16,13.25c-9.92-23.69-27.59-62.82-42.44-84.42c-29.41-39.55-6.94-13.48-42.7-51.47
		c-28.6-28.6-61.74-52.27-98.7-71.21c-27.63-13.72-37.49-16.64-52.75-22.49c3.86,10.21,5.84,21.03,5.86,31.94
		c0,50.06-40.58,90.65-90.65,90.65c-50.06,0-90.65-40.58-90.65-90.65c0.04-23.43,9.15-45.94,25.42-62.8
		c-16.14-1.16-32.57-1.74-49.24-1.74h-0.1C238.38,73.5,60.61,291.25,34.23,485.84c-0.2,1.41,0.91,2.72,2.42,2.62
		c40.48,4.34,120.21,2.36,159.14-7.45c-22.88-10.22-24.07-21.55-26.49-29.31c8.26-1.02,47.75-9.43,70.2-26.49
		c-17.34-1.22-24.78-10.88-21.45-14.3c24.22-0.81,35.56-0.81,61.34-15.11c-18.84-0.69-32.23-13.9-37.37-20.75
		c-1.11-1.51,36.36,10.27,59.22-3.53c1.71-1.11-32.83-15.51-31.22-28.2c44.26-33.54,143.71,32.04,118.65,85.31
		c-19.94,6.75-48.55-12.39-47.64-10.68c2.51,13.35,14.5,24.78,14,25.58c-10.37,14.1-42.7-3.33-42.81-1.61
		c-0.3,8.96,4.03,14.71,9.06,20.04c0.81,0.91-7.36,8.08-41.29,2.92c5.44,6.65,9.45,13.83,14.2,14.7
		c2.9,0.53-47.73,14.23-46.13,16.62c40.29,20.88,92.26,20.85,141.21,14.6C415,461,525,402,555.24,398.42
		c-14.2-7.35-26.39-19.34-36.16-35.35c-0.91-1.51,0.2-3.53,2.01-3.53c129.02-0.3,196.7,70.7,201.44,215.34v0.5
		c-24.98,136.68-127.91,217.45-249.78,234.47c-141.61,9.87-263.08-53.78-372.05-179.78c-1.61-1.91-4.63-0.3-4.03,2.11
		C124.37,738.64,225,933,483.13,943h0.2c228.67,0,307.69-86.82,337.1-112.2c18.78-17.34,23.74-22.08,29.43-28.24
		c-0.77,0.04-1.54,0.07-2.3,0.08c-38.94,0-70.5-31.57-70.5-70.5s31.57-70.5,70.5-70.5c30.74,0.04,57.91,19.99,67.15,49.3
		c0.5-0.97,1.01-1.93,1.5-2.91c13.66-30.34,14.52-34.62,22.26-51.97c10.98-31.12,19.04-64.66,23.97-100.72
		c2.74-48.13,2.16-30.62,3.22-69.09C965.48,465.6,964.26,445.73,962.05,426.59z M247.59,252.98c-5.96,14.66-9.56,17.41-33.22,25.33
		c-14.6,4.88-29.9,10.37-34.01,12.19c-4.11,1.82-7.47,2.09-7.47,0.59c0-6.9,14.12-35.38,23.87-48.17
		c10.42-13.66,50.93-43.91,58.8-43.91C260.79,199.01,255.8,232.76,247.59,252.98z M411.88,889.06c-13.55,0.48-25.05-9.87-26-23.4
		c-0.95-13.53,8.99-25.38,22.47-26.8c0.84-0.09,1.67-0.13,2.51-0.14c12.6-0.06,23.3,9.19,25.06,21.66l0.25,3.52
		C436.18,877.46,425.44,888.59,411.88,889.06z M756.91,225.5c0.83-0.09,1.67-0.13,2.51-0.14c12.6-0.06,23.3,9.19,25.06,21.66
		l0.25,3.52c0,13.56-10.74,24.69-24.3,25.16c-13.55,0.48-25.05-9.87-26-23.4C733.48,238.77,743.42,226.92,756.91,225.5z
		 M448.79,184.88c-0.95-13.53,8.99-25.38,22.47-26.8c0.84-0.09,1.67-0.13,2.51-0.14c12.6-0.06,23.3,9.19,25.06,21.66l0.25,3.52
		c0,13.56-10.74,24.69-24.3,25.16C461.23,208.75,449.74,198.41,448.79,184.88z M733.27,846.81c-13.55,0.48-25.05-9.87-26-23.4
		c-0.95-13.53,8.99-25.38,22.48-26.8c0.84-0.09,1.67-0.13,2.51-0.14c12.59-0.06,23.3,9.19,25.06,21.66l0.25,3.52
		C757.57,835.21,746.83,846.34,733.27,846.81z M799.16,552.32c-0.61,20.46-5.15,40.39-8.49,60.79c-3.34,20.4-9.01,40.4-16.03,59.16
		c-11.18,29.9-18.37,48.89-45.27,80.73c-40.4,47.82-75.94,62.66-120.71,84.5c-31.18,15.2-57.36,19.72-95.81,27.91
		c-12.44,2.65-39.91,6.09-43.76-6.04c-3.59-11.32,18.28-18.53,32.44-23.39c32.46-12.85,22.94-9.23,60.35-24.9
		c21.72-8.82,34.28-14.99,54.32-27.16c16.79-10.19,31.76-23.46,45.27-37.72c18.53-19.58,34.65-41.62,48.28-64.88
		c10.59-18.06,21.47-36.82,25.65-57.34c4.66-22.89,6.63-43.64,6.04-65.63c-0.69-25.69-2.08-50.71-7.54-75.44
		c-5.25-23.76-14.81-49.2-27.16-70.16c-10.12-17.17-18.75-25.03-34.7-36.97c-12.61-9.43-29.77-17.85-44.51-23.39
		c-22.38-8.41-40.83-15.67-64.16-20.89c-15.98-3.58-32.52-3.47-48.25-9.29c-5.52-2.04-10.25-4.89-14.25-9.31
		c-4-4.43-8.35-9.35-9.9-14.83c-3.01-10.69-4.4-22.87-2.3-34.17c1.96-10.51,8.27-19.1,17.39-24.68
		c12.39-7.57,27.75-9.76,42.25-10.56c3.29-0.18,6.59-0.27,9.9-0.28c23.13-0.02,46.43,4.25,68.56,10.84
		c34.71,10.34,80.85,33.99,104.87,61.11c25.18,28.43,35.24,47.71,49.04,82.23c10.37,25.94,16.53,53.56,19.61,81.48
		C803.48,492.93,800,524.06,799.16,552.32z M844.18,591.06c-13.55,0.48-25.05-9.87-26-23.4c-0.95-13.53,8.99-25.38,22.48-26.8
		c0.83-0.09,1.67-0.13,2.51-0.14c12.6-0.06,23.3,9.19,25.06,21.66l0.25,3.52C868.47,579.46,857.73,590.58,844.18,591.06z"/>
	<path d="M477.68,849.47c-3.1,0.99-4.14,5.13-2.32,9.24c1.82,4.11,5.81,6.64,8.91,5.65c3.1-0.99,4.14-5.13,2.32-9.24
		C484.77,851.01,480.78,848.48,477.68,849.47z"/>
	<path d="M497.39,842.08c-5.07,0.29-7.82,5.39-6.16,11.4c1.67,6.01,7.12,10.64,12.19,10.35c5.07-0.29,7.82-5.39,6.16-11.4
		S502.45,841.79,497.39,842.08z"/>
	<ellipse transform="matrix(0.6956 -0.7184 0.7184 0.6956 -447.1692 634.2529)" cx="524.92" cy="844.85" rx="11.65" ry="15.25"/>
	<path d="M558,821.87c-7.86-4.17-16.04-1.39-18.27,6.19c-2.23,7.59,2.34,17.11,10.21,21.28c7.86,4.17,16.04,1.39,18.27-6.19
		C570.43,835.56,565.86,826.04,558,821.87z"/>
	<ellipse transform="matrix(0.7893 -0.614 0.614 0.7893 -383.5219 531.9673)" cx="583.3" cy="824.76" rx="14.67" ry="17.85"/>
	<ellipse transform="matrix(0.8944 -0.4473 0.4473 0.8944 -298.0036 360.3008)" cx="613.94" cy="811.18" rx="14.16" ry="17.33"/>
	<ellipse transform="matrix(0.6722 -0.7404 0.7404 0.6722 -376.3704 737.6503)" cx="644.78" cy="793.83" rx="15.14" ry="18.42"/>
	<ellipse transform="matrix(0.6831 -0.7303 0.7303 0.6831 -349.0733 735.2953)" cx="672.7" cy="769.86" rx="16.6" ry="20.02"/>
	<ellipse transform="matrix(0.5391 -0.8422 0.8422 0.5391 -303.4014 933.1977)" cx="700.98" cy="743.82" rx="17.8" ry="21.87"/>
	<ellipse transform="matrix(0.2263 -0.9741 0.9741 0.2263 -134.1517 1256.3326)" cx="723.79" cy="712.61" rx="15.89" ry="24.05"/>
	<ellipse transform="matrix(0.1689 -0.9856 0.9856 0.1689 -57.0035 1296.8132)" cx="740.46" cy="682.21" rx="14.89" ry="23.59"/>
	<ellipse transform="matrix(0.1632 -0.9866 0.9866 0.1632 -10.405 1288.6648)" cx="754.46" cy="650.47" rx="14.89" ry="23.59"/>
	<ellipse transform="matrix(0.1595 -0.9872 0.9872 0.1595 32.3183 1272.2067)" cx="763.26" cy="617.12" rx="14.89" ry="23.59"/>
	<path d="M781.15,571.51c-10.89-5.16-25.46-4.08-32.54,2.41c-7.08,6.49-3.99,15.92,6.9,21.08c10.89,5.16,25.46,4.08,32.54-2.41
		C795.13,586.1,792.04,576.66,781.15,571.51z"/>
	<ellipse transform="matrix(0.0561 -0.9984 0.9984 0.0561 175.1232 1290.6632)" cx="770.2" cy="552.71" rx="11.87" ry="25.68"/>
	<ellipse transform="matrix(0.9993 -0.0384 0.0384 0.9993 -19.5723 29.9464)" cx="770.73" cy="525.1" rx="26.22" ry="11.87"/>
	<path d="M781.91,483.03c-13.13-1.38-29.26,2.96-36.02,9.7c-6.76,6.74-1.6,13.32,11.53,14.7c13.13,1.38,29.26-2.96,36.02-9.7
		C800.2,490.99,795.04,484.41,781.91,483.03z"/>
	<path d="M791.81,470.52c7.44-6.74,1.76-13.32-12.68-14.7c-14.44-1.38-32.18,2.96-39.61,9.7c-7.44,6.74-1.76,13.32,12.68,14.7
		C766.64,481.6,784.38,477.26,791.81,470.52z"/>
	<ellipse transform="matrix(0.9739 -0.2271 0.2271 0.9739 -79.7744 184.0201)" cx="759.8" cy="438.68" rx="32.28" ry="11.92"/>
	<ellipse transform="matrix(0.9688 -0.2479 0.2479 0.9688 -77.9372 198.5074)" cx="749.13" cy="408.67" rx="34.05" ry="13.37"/>
	<ellipse transform="matrix(0.956 -0.2933 0.2933 0.956 -78.769 232.3306)" cx="735.26" cy="378.8" rx="35.2" ry="15.42"/>
	<ellipse transform="matrix(0.8859 -0.4639 0.4639 0.8859 -79.7244 368.1255)" cx="708.45" cy="346.12" rx="42.87" ry="18.37"/>
	<ellipse transform="matrix(0.7481 -0.6636 0.6636 0.7481 -41.7654 526.2183)" cx="672.17" cy="318.12" rx="45.11" ry="19.24"/>
	<ellipse transform="matrix(0.62 -0.7846 0.7846 0.62 7.0116 606.9666)" cx="630.16" cy="296.24" rx="48.62" ry="20.93"/>
	<ellipse transform="matrix(0.4682 -0.8836 0.8836 0.4682 60.7924 664.1559)" cx="582.15" cy="281.57" rx="48.62" ry="20.93"/>
	<ellipse transform="matrix(0.2058 -0.9786 0.9786 0.2058 153.4626 742.8984)" cx="534.41" cy="276.91" rx="42.06" ry="16.49"/>
	<ellipse transform="matrix(0.2059 -0.9786 0.9786 0.2059 135.5161 706.9365)" cx="503.33" cy="269.97" rx="26.84" ry="11.51"/>
	<path d="M493.5,180.13c-1.52-10.74-11.27-18.36-22.06-17.22c-10.79,1.14-18.74,10.62-17.98,21.44c0.76,10.82,9.96,19.1,20.8,18.72
		c10.84-0.38,19.44-9.28,19.44-20.13L493.5,180.13z"/>
	<path d="M760.31,270.64c10.84-0.38,19.44-9.28,19.44-20.13l-0.2-2.81c-1.52-10.74-11.27-18.36-22.06-17.22
		c-10.79,1.14-18.74,10.62-17.98,21.44C740.27,262.74,749.46,271.02,760.31,270.64z"/>
	<path d="M408.89,844.24c-10.79,1.14-18.74,10.62-17.98,21.44s9.96,19.1,20.8,18.72c10.84-0.38,19.44-9.28,19.44-20.13l-0.2-2.81
		C429.43,850.72,419.68,843.1,408.89,844.24z"/>
	<circle cx="843" cy="566" r="21"/>
	<circle cx="732" cy="822" r="21"/>
</g>
</svg>
