<?xml version="1.0" encoding="utf-8"?>
<!-- Generator: Adobe Illustrator 24.2.0, SVG Export Plug-In . SVG Version: 6.00 Build 0)  -->
<svg version="1.1" id="Layer_1" xmlns="http://www.w3.org/2000/svg" xmlns:xlink="http://www.w3.org/1999/xlink" x="0px" y="0px"
	 viewBox="0 0 1000 1000" style="enable-background:new 0 0 1000 1000;" xml:space="preserve">
<g id="layer1" transform="translate(-51.338321,-36.816343)">
	<path id="path826" d="M792.2,44.3C700.37,86.93,636.25,172.93,621.5,273.02h-26.03V44.3h-87.46v228.72h-26.03
		C467.23,172.94,403.11,86.93,311.29,44.3v77.31c57.2,22.94,99.23,92.17,113.37,151.41h-77.49v87.45h77.49
		c-14.01,58.73-55.67,128.28-113.36,151.43v77.35c92.66-43.02,156.15-129.6,170.72-228.77h26.01v252.86H311.29l240.45,416.48
		L792.2,613.33H595.47V360.47h26.01c14.57,99.17,78.06,185.75,170.72,228.77V511.9c-57.69-23.14-99.35-92.69-113.36-151.43h77.49
		v-87.45h-77.49C692.96,213.77,735,144.55,792.2,121.61V44.3z M414.99,671.23h273.49L551.74,908.08L414.99,671.23z"/>
</g>
</svg>
