<?xml version="1.0" encoding="utf-8"?>
<!-- Generator: Adobe Illustrator 24.0.1, SVG Export Plug-In . SVG Version: 6.00 Build 0)  -->
<svg version="1.1" id="Layer_1" xmlns="http://www.w3.org/2000/svg" xmlns:xlink="http://www.w3.org/1999/xlink" x="0px" y="0px"
	 viewBox="0 0 1000 1000" style="enable-background:new 0 0 1000 1000;" xml:space="preserve">
<style type="text/css">
	.st0{fill:#010101;}
</style>
<g>
	<path class="st0" d="M603.37,905.58c-12.74-22.78-14.87-44.02-14.87-54.45v-44.21c-13.13,11.01-25.29,23.94-36.3,38.81
		C528.27,878.16,519,908.28,519,908.47l-9.56,21.62l-18.52-0.19l-9.95-21.62c0-0.39-9.46-30.31-33.21-62.75
		c-11.01-14.87-22.98-27.8-36.3-38.81v44.21c0,10.43-2.12,31.47-14.87,54.45c-21.62,39-81.25,38.81-92.44,38.81
		c0,13.13,0,25.87,0,38.81h391.48c0-12.94,0-25.87,0-38.81C684.81,944.38,625.19,944.58,603.37,905.58z"/>
	<path class="st0" d="M396.78,95.42c3.09,5.41,5.41,10.81,7.34,15.83c38.42-13.9,74.91-18.34,95.96-18.34s57.34,4.63,95.96,18.34
		c1.93-5.02,4.44-10.43,7.34-15.83c21.62-39,81.25-38.81,92.44-38.81c0-13.13,0-25.87,0-38.81H304.53c0,12.94,0,25.87,0,38.81
		C315.53,56.61,375.16,56.42,396.78,95.42z"/>
	<path class="st0" d="M718.06,249.88C678.1,133.45,538.69,112.6,500.27,112.6s-178.02,20.85-217.79,137.28
		c-33.98,99.44,45.95,193.85,18.92,227.25c-34.95,43.25,13.13,111.99,30.7,270.12c129.75,26.84,168.17,155.43,168.17,155.43
		s38.42-128.59,168.17-155.43c17.57-158.13,65.84-226.87,30.7-270.12C671.92,443.73,751.85,349.32,718.06,249.88z M342.33,544.9
		c-11.01-4.44-12.74-45.37-7.34-51.17c9.07-9.65,32.55-16.05,53.48-5.79c20.52,10.05,67.96,19.31,67.96,25.87
		C456.63,520.58,390.02,564.41,342.33,544.9z M346.19,276.91c0,0,40.36-51.03,107.8-75.46c-9.94,11-15.99,25.57-15.99,41.55
		c0,34.24,27.76,62,62,62s62-27.76,62-62c0-16.99-6.84-32.39-17.92-43.58c76.73,22.56,110.07,77.69,110.07,77.69
		s-68.93,67.58-153.88,67.96C415.12,344.68,346.19,276.91,346.19,276.91z M658.02,544.9c-47.69,19.69-114.3-24.33-114.3-30.89
		c0-6.56,48.29-14.01,67.96-25.87c19.99-12.05,44.6-3.86,53.48,5.79C670.57,499.53,669.02,540.27,658.02,544.9z"/>
</g>
</svg>
